# xmcd
#
# Track frame offsets: 
#        150
#        19432
#        40529
#        66874
#        67658
#        85669
#        102436
#        118587
#        137622
#        161088
#
# Disc length: 2251 seconds
#
# Revision: 0
# Processed by: cddbd v1.5.2PL0 Copyright (c) Steve Scherf et al.
# Submitted via: ExactAudioCopy v0.99pb4
#
DISCID=7c08c90a
DTITLE=E Z Storm - The Gathering
DYEAR=2005
DGENRE=Country
TTITLE0=Kindred Spirit
TTITLE1=What's Goin' on in Heaven
TTITLE2=Just Can't See
TTITLE3=Intro
TTITLE4=Some Serious Drinkin'
TTITLE5=Like Me and You
TTITLE6=Orphan Child
TTITLE7=Recognition
TTITLE8=You'll See Her
TTITLE9=Glad to Be Here
EXTD=
EXTT0=
EXTT1=
EXTT2=
EXTT3=
EXTT4=
EXTT5=
EXTT6=
EXTT7=
EXTT8=
EXTT9=
PLAYORDER=
